<mxfile host="app.diagrams.net" modified="2023-06-08T14:20:16.719Z" agent="Mozilla/5.0 (Windows NT 10.0; Win64; x64) AppleWebKit/537.36 (KHTML, like Gecko) Chrome/114.0.0.0 Safari/537.36" etag="QvMTYXsv4b2mD0IY7E8T" version="21.3.7" type="device">
  <diagram name="Page-1" id="8q7wC21eAmJDXtnBGPTJ">
    <mxGraphModel dx="1674" dy="764" grid="1" gridSize="10" guides="1" tooltips="1" connect="1" arrows="1" fold="1" page="1" pageScale="1" pageWidth="850" pageHeight="1100" math="0" shadow="0">
      <root>
        <mxCell id="0" />
        <mxCell id="1" parent="0" />
        <mxCell id="GG4xbzOkLtyyKxyQavHR-8" value="" style="ellipse;whiteSpace=wrap;html=1;fillColor=#CCFFFF;" parent="1" vertex="1">
          <mxGeometry x="260" y="250" width="280" height="260" as="geometry" />
        </mxCell>
        <mxCell id="GG4xbzOkLtyyKxyQavHR-6" value="" style="ellipse;whiteSpace=wrap;html=1;fillColor=#FFF99E;" parent="1" vertex="1">
          <mxGeometry x="280" y="280" width="240" height="200" as="geometry" />
        </mxCell>
        <mxCell id="GG4xbzOkLtyyKxyQavHR-2" value="" style="ellipse;whiteSpace=wrap;html=1;fillColor=#FFE6E6;" parent="1" vertex="1">
          <mxGeometry x="310" y="310" width="180" height="140" as="geometry" />
        </mxCell>
        <mxCell id="GG4xbzOkLtyyKxyQavHR-1" value="Domain Model&lt;br&gt;&lt;br&gt;Shared Kernel" style="ellipse;whiteSpace=wrap;html=1;fillColor=#CCFFE6;" parent="1" vertex="1">
          <mxGeometry x="340" y="340" width="120" height="80" as="geometry" />
        </mxCell>
        <mxCell id="GG4xbzOkLtyyKxyQavHR-4" value="Application&lt;br&gt;" style="text;html=1;align=center;verticalAlign=middle;resizable=0;points=[];autosize=1;strokeColor=none;fillColor=none;" parent="1" vertex="1">
          <mxGeometry x="360" y="310" width="80" height="30" as="geometry" />
        </mxCell>
        <mxCell id="GG4xbzOkLtyyKxyQavHR-5" value="Service" style="text;html=1;align=center;verticalAlign=middle;resizable=0;points=[];autosize=1;strokeColor=none;fillColor=none;" parent="1" vertex="1">
          <mxGeometry x="370" y="420" width="60" height="30" as="geometry" />
        </mxCell>
        <mxCell id="GG4xbzOkLtyyKxyQavHR-7" value="Infrastructure" style="text;html=1;align=center;verticalAlign=middle;resizable=0;points=[];autosize=1;strokeColor=none;fillColor=none;" parent="1" vertex="1">
          <mxGeometry x="355" y="280" width="90" height="30" as="geometry" />
        </mxCell>
        <mxCell id="GG4xbzOkLtyyKxyQavHR-9" value="Api" style="text;html=1;align=center;verticalAlign=middle;resizable=0;points=[];autosize=1;strokeColor=none;fillColor=none;" parent="1" vertex="1">
          <mxGeometry x="380" y="250" width="40" height="30" as="geometry" />
        </mxCell>
      </root>
    </mxGraphModel>
  </diagram>
</mxfile>
